<?xml version="1.0" encoding="UTF-8"?>
<svg width="207px" height="82px" viewBox="0 0 426 63" version="1.1" xmlns="http://www.w3.org/2000/svg" xmlns:xlink="http://www.w3.org/1999/xlink">
    <title>Artboard</title>
    <g id="Artboard" stroke="none" stroke-width="1" fill="none" fill-rule="evenodd">
        <g id="Group" transform="translate(0.738000, 0.038000)" fill="#00095B">
            <polyline id="Fill-5" points="-5.68434189e-14 2.799 40.641 2.799 40.641 12.08 9.68 12.08 9.68 28 39.841 28 39.841 37.2 9.68 37.2 9.68 62.081 -5.68434189e-14 62.081 -5.68434189e-14 2.799"></polyline>
            <path d="M80.768,39.841 C80.768,30.56 77.488,25.2 67.648,25.2 C57.727,25.2 54.528,30.56 54.528,39.841 C54.528,49.121 57.727,54.561 67.648,54.561 C77.488,54.561 80.768,49.121 80.768,39.841 Z M45.167,39.601 C45.167,24.4 51.488,16.24 67.648,16.24 C83.808,16.24 90.128,24.4 90.128,39.601 C90.128,54.801 83.808,62.961 67.648,62.961 C51.488,62.961 45.167,54.801 45.167,39.601 L45.167,39.601 Z" id="Fill-6"></path>
            <path d="M97.328,17.839 L104.608,17.28 L105.568,22.4 C107.408,19.36 112.847,16.96 120.448,16.799 L120.448,26.16 C109.727,26.24 106.687,31.28 106.687,39.04 L106.687,62.081 L97.328,62.081 L97.328,17.839" id="Fill-7"></path>
            <path d="M158.824,39.44 C158.824,28.96 155.543,25.12 145.303,25.12 C135.702,25.12 133.383,30.72 133.383,39.44 C133.383,48.32 135.702,54.401 145.303,54.401 C155.223,54.401 158.824,50.081 158.824,39.44 Z M123.943,39.44 C123.943,26.16 128.183,16.32 143.543,16.32 C152.503,16.32 156.744,18.08 158.824,21.2 L158.824,7.10542736e-15 L168.184,7.10542736e-15 L168.184,61.681 L161.063,62.401 L160.023,57.601 C157.303,61.121 152.503,62.881 143.223,62.881 C128.103,62.881 123.943,52.881 123.943,39.44 L123.943,39.44 Z" id="Fill-8"></path>
            <path d="M194.821,32.4 C194.821,11.36 205.941,1.839 225.221,1.839 C234.822,1.839 241.782,4.559 247.222,9.919 L240.182,16.879 C236.261,13.2 231.621,11.2 225.141,11.2 C211.141,11.2 204.58,18.4 204.58,32.48 C204.58,46.32 210.501,53.841 225.221,53.841 C233.541,53.841 237.142,51.201 240.742,47.841 L247.621,54.401 C243.222,58.881 237.142,62.961 224.662,62.961 C203.62,62.961 194.821,52.241 194.821,32.4" id="Fill-9"></path>
            <path d="M253.708,17.839 L260.989,17.28 L261.949,22.4 C263.788,19.36 269.228,16.96 276.829,16.799 L276.829,26.16 C266.108,26.24 263.068,31.28 263.068,39.04 L263.068,62.081 L253.708,62.081 L253.708,17.839" id="Fill-10"></path>
            <path d="M289.276,35.44 L312.876,35.44 C312.476,29.04 311.836,24.48 302.236,24.48 C292.955,24.48 289.996,28.799 289.276,35.44 Z M280.236,39.601 C280.236,26.879 284.236,16.24 302.476,16.24 C321.357,16.24 321.996,29.36 321.676,43.521 L289.276,43.521 C289.835,50.561 292.636,54.961 302.636,54.961 C309.756,54.961 313.276,53.121 316.716,50.641 L321.676,57.121 C316.556,61.041 311.196,62.961 302.636,62.961 C283.915,62.961 280.236,52.481 280.236,39.601 L280.236,39.601 Z" id="Fill-11"></path>
            <path d="M362.107,39.44 C362.107,28.96 358.827,25.12 348.586,25.12 C338.986,25.12 336.666,30.72 336.666,39.44 C336.666,48.32 338.986,54.401 348.586,54.401 C358.506,54.401 362.107,50.081 362.107,39.44 Z M327.226,39.44 C327.226,26.16 331.466,16.32 346.827,16.32 C355.787,16.32 360.027,18.08 362.107,21.2 L362.107,7.10542736e-15 L371.467,7.10542736e-15 L371.467,61.681 L364.346,62.401 L363.306,57.601 C360.586,61.121 355.787,62.881 346.506,62.881 C331.386,62.881 327.226,52.881 327.226,39.44 L327.226,39.44 Z" id="Fill-12"></path>
            <path d="M380.849,62.081 L390.049,62.081 L390.049,17.28 L380.849,17.28 L380.849,62.081 Z M380.769,12.4 L390.129,12.4 L390.129,2.16 L380.769,2.16 L380.769,12.4 Z" id="Fill-13"></path>
            <path d="M395.881,17.28 L403.881,17.28 L405.561,5.279 L412.841,3.759 L412.841,17.28 L424.282,17.28 L424.282,25.759 L412.841,25.759 L412.841,47.841 C412.841,51.601 413.322,53.841 419.081,53.841 L424.282,53.841 L424.282,62.081 C423.001,62.161 418.841,62.161 417.322,62.161 C406.202,62.161 403.561,58.161 403.561,49.201 L403.561,25.759 L395.881,25.759 L395.881,17.28" id="Fill-14"></path>
        </g>
    </g>
</svg>
