<?xml version="1.0" encoding="utf-8"?>
<!-- Generator: Adobe Illustrator 27.8.0, SVG Export Plug-In . SVG Version: 6.00 Build 0)  -->
<svg version="1.0" id="katman_1" xmlns="http://www.w3.org/2000/svg" xmlns:xlink="http://www.w3.org/1999/xlink" x="0px" y="0px"
	 viewBox="0 0 841.89 595.28" style="enable-background:new 0 0 841.89 595.28;" xml:space="preserve">
<style type="text/css">
	.st0{fill:#21264F;}
</style>
<g id="Ford_Script">
	<path class="st0" d="M694.55,256.89c0.62-1.06-0.03-1.86-1.39-1.86c-7.05,0-16.28,0.03-23.6,0.03c-1.74,0-2.66,0.21-3.48,1.83
		c-2.71,5.19-35.73,54.67-41.86,64.25c-1.03,1.48-2.3,1.27-2.45-0.41c-0.62-5.69-5.55-12.27-13.31-15.4
		c-5.9-2.39-11.71-2.83-17.7-2.04c-10.86,1.45-20.53,7.2-29.03,13.63c-12.8,9.74-23.87,22.36-38.15,31.71
		c-7.79,5.07-18.47,9.5-25.61,2.89c-6.46-5.99-5.72-19.29,4.16-29.59c1.03-1.09,2.3-0.18,2.09,0.8c-0.94,4.66,0.21,9.29,3.75,12.54
		c4.31,3.86,10.47,4.31,15.75,1.71c6.22-3.1,9.88-9.06,10.97-15.81c1.65-10.5-6.43-19.77-16.55-20.5
		c-8.23-0.59-16.11,2.27-23.78,8.61c-3.84,3.19-6.05,5.55-9.35,10.3c-0.8,1.15-2.07,1.27-2.01-0.44
		c0.38-13.45-5.16-21.01-16.28-21.27c-8.61-0.21-17.85,4.48-25.02,10.21c-7.88,6.31-14.75,14.72-22.13,22.6
		c-0.91,0.97-1.71,0.91-1.98-0.97c-0.24-8.91-2.45-17.52-6.58-23.66c-1.45-2.12-4.51-3.19-7.11-1.74c-1.18,0.65-5.34,2.57-8.35,4.99
		c-1.5,1.24-2.07,3.01-1.42,5.31c3.98,13.31,3.1,28.44-2.3,41.21c-4.96,11.71-14.6,22.27-25.93,25.84
		c-7.46,2.36-15.22,1.21-20.03-5.4c-6.58-9.12-3.92-25.02,5.9-38.18c8.67-11.59,21.21-18.97,33.72-23.72
		c1.48-0.56,1.77-1.5,1.36-2.77c-0.68-2.07-1.77-4.87-2.21-6.14c-1.15-3.04-4.37-3.54-8.29-3.13c-9.09,1.06-17.29,4.16-25.4,8.5
		c-21.21,11.36-31.83,33.34-36.49,45.11c-2.24,5.66-4.16,9.18-6.64,12.3c-3.33,4.19-7.55,8.02-15.22,14.78
		c-0.71,0.62-1.21,1.92-0.62,3.1c0.8,1.62,4.78,7.26,5.9,7.76c1.24,0.62,2.71-0.24,3.27-0.65c5.37-3.63,11.8-9.41,14.96-13.33
		c1.09-1.33,2.24-0.77,2.83,1.27c2.95,10.47,10.62,19.03,21.24,22.6c19.44,6.55,39.62-2.95,54.84-19.47
		c9.68-10.5,13.16-17.26,16.87-21.86c6.28-7.79,18.67-25.22,33.45-36.41c5.43-4.13,11.83-7.26,15.05-5.19
		c2.6,1.68,3.42,5.58-0.74,13.13c-15.05,27.5-37.2,59.8-41.27,67.65c-0.74,1.36-0.09,2.42,1.33,2.42
		c7.88-0.03,15.69-0.03,22.83-0.03c1.18-0.06,1.71-0.59,2.33-1.45c11.56-18.08,22.42-35.31,34.07-53.1
		c0.65-1.06,1.24-0.24,1.27,0.24c0.24,4.13,1.27,9.79,3.72,13.48c4.4,6.84,10.65,9.79,17.58,9.85c5.52,0.06,8.29-0.77,14.25-2.98
		c4.84-1.8,8.73-4.16,11.68-6.28c1.74-1.21,2.04,0.83,2.01,1.12c-2.68,14.37,0.62,31.36,14.9,38.44
		c17.08,8.41,35.84-3.42,46.64-14.1c1.06-1.03,2.18-0.91,2.3,1.3c0.24,4.07,2.07,8.91,5.46,12.3c9.06,9.09,27.29,5.49,45.61-8.7
		c11.77-9.09,24.07-21.92,35.2-35.49c0.41-0.53,0.71-1.36-0.09-2.21c-1.68-1.77-4.13-3.81-5.81-5.37c-0.77-0.65-1.89-0.47-2.54,0.03
		c-11.39,10.83-21.65,23.19-36.49,33.43c-4.99,3.48-12.98,6.31-16.55,1.48c-1.39-1.89-1.24-4.48,0.15-7.91
		C622.54,367.26,691.01,263.06,694.55,256.89z M604.07,344.27c0.15,0.8,1.18,1.56,2.21,1.95c0.35,0.12,0.56,0.38,0.15,1.24
		c-2.92,6.22-5.58,9.82-9.23,15.25c-3.36,5.02-7.14,8.91-11.71,12.66c-6.9,5.72-16.49,11.92-24.43,7.76
		c-3.51-1.83-5.04-6.76-4.99-10.74c0.18-11.21,5.16-22.75,14.37-34.04c11.24-13.84,23.66-21.01,31.8-17.08
		c8.44,4.01,5.75,13.78,1.98,21.45C603.95,343.3,603.92,343.8,604.07,344.27z"/>
	<path class="st0" d="M198.07,403.6c-25.52,0.18-48-15.58-50.57-42.9c-1.45-15.13,2.83-28.62,11.42-39.71
		c7.58-9.88,20.44-18.11,31.33-20.12c3.54-0.65,8.29-0.24,10.27,2.09c3.1,3.6,2.18,7.52-0.89,9.12
		c-8.29,4.25-18.29,11.51-23.22,21.39c-4.01,8.08-4.81,17.85,1.3,27.11c10.24,15.49,38.82,15.9,65.38-8.79
		c6.58-6.05,12.45-11.83,18.44-18.7c11.71-13.36,15.58-18.26,31.15-39.83c0.18-0.24,0.24-0.59,0.15-0.74
		c-0.12-0.27-0.35-0.35-0.8-0.38c-10.38,0.3-19.44,3.39-28.23,9.97c-2.54,1.86-6.17,1.59-7.79-0.86c-1.77-2.74-0.5-6.34,2.42-8.35
		c14.16-9.85,29.62-11.62,45.4-14.28c0,0,1.09,0.06,2.01-1.15c6.49-8.32,11.39-15.81,18.29-24.22c6.96-8.53,15.96-16.37,22.83-22.24
		c9.59-8.26,15.72-11.03,21.98-14.43c1.65-0.86-0.21-1.89-0.71-1.89c-34.9-6.55-71.16-15.05-105.82-2.21
		c-23.98,8.97-34.52,28-29.44,40.71c3.6,9.03,15.46,10.47,26.58,5.04c9.23-4.51,17.76-11.8,23.81-21.18
		c3.39-5.19,10.53-1.45,6.67,7.58c-10.15,23.84-29.53,42.75-53.13,43.54c-20.09,0.65-33.04-14.13-33.01-32.36
		c0.09-35.96,40.12-59.62,82.16-63.19c50.65-4.19,98.62,9.29,148.92,15.4c38.53,4.66,75.49,4.78,114.2-4.13
		c4.57-1,7.79,1.92,7.49,6.55c-0.38,6.7-5.55,13.13-18.32,20.09c-14.51,7.97-29.68,10.36-45.55,10.5
		c-38.32,0.32-74.05-14.63-110.99-22.66c0.06,1.62,0.47,3.54-0.89,4.57c-20.44,15.1-38.94,30.45-51.33,51.98
		c-0.41,0.5-0.18,0.97,0.53,0.91c10.77-0.56,20.44-0.86,30.48-1.65c1.74-0.15,1.83-0.59,1.65-1.86c-0.89-7.43,1.27-15.87,7.82-21.71
		c6.67-5.99,15.05-6.67,20.59-2.36c6.31,4.93,5.75,13.75,2.3,20.39c-3.51,6.73-9.29,10.33-14.87,12.07c0,0-1.15,0.27-1,1.33
		c0.24,1.71,7.82,5.9,8.47,7.02c0.62,1.06,0.3,2.71-0.86,3.98c-0.8,0.91-2.07,1.77-3.66,1.74c-1.3-0.03-2.09-0.47-3.75-1.39
		c-3.39-1.86-7.64-4.87-10.5-8.44c-0.97-1.21-1.45-1.24-3.86-1.09c-10.86,0.62-27.82,2.27-39.3,3.69c-2.77,0.35-3.19,0.86-3.78,1.83
		c-18.32,30.18-37.85,62.75-59.3,84.52C237.54,397.29,218.4,403.45,198.07,403.6z M372.54,269.46c0.3,1.56,0.89,1.86,1.59,1.71
		c3.48-0.71,7.32-3.57,9.56-6.87c2.07-3.01,3.04-7.38,0.97-9.12c-1.83-1.56-4.78-1.12-6.99,0.83
		C373.31,259.87,371.95,265.39,372.54,269.46z"/>
</g>
</svg>
