<?xml version="1.0" encoding="UTF-8" standalone="no"?>
<!-- Created with Inkscape (http://www.inkscape.org/) -->

<svg
   xmlns:dc="http://purl.org/dc/elements/1.1/"
   xmlns:cc="http://creativecommons.org/ns#"
   xmlns:rdf="http://www.w3.org/1999/02/22-rdf-syntax-ns#"
   xmlns:svg="http://www.w3.org/2000/svg"
   xmlns="http://www.w3.org/2000/svg"
   xmlns:sodipodi="http://sodipodi.sourceforge.net/DTD/sodipodi-0.dtd"
   xmlns:inkscape="http://www.inkscape.org/namespaces/inkscape"
   id="svg2985"
   version="1.1"
   inkscape:version="0.48.5 r10040"
   width="1000"
   height="379.42847"
   xml:space="preserve"
   sodipodi:docname="A.svg"><metadata
     id="metadata2991"><rdf:RDF><cc:Work
         rdf:about=""><dc:format>image/svg+xml</dc:format><dc:type
           rdf:resource="http://purl.org/dc/dcmitype/StillImage" /><dc:title></dc:title></cc:Work></rdf:RDF></metadata><defs
     id="defs2989"><clipPath
       clipPathUnits="userSpaceOnUse"
       id="clipPath2999"><path
         d="M 0,0 612,0 612,792 0,792 0,0 z"
         id="path3001"
         inkscape:connector-curvature="0" /></clipPath><clipPath
       clipPathUnits="userSpaceOnUse"
       id="clipPath3019"><path
         d="m 72,320.116 468,0 0,275.883 -468,0 0,-275.883 z"
         id="path3021"
         inkscape:connector-curvature="0" /></clipPath><clipPath
       clipPathUnits="userSpaceOnUse"
       id="clipPath3033"><path
         d="m 135.975,150.115 156.598,0 0,45.86 -156.598,0 0,-45.86 z"
         id="path3035"
         inkscape:connector-curvature="0" /></clipPath><clipPath
       clipPathUnits="userSpaceOnUse"
       id="clipPath3235"><path
         d="m 351.279,147.226 120.657,0 0,42.346 -120.657,0 0,-42.346 z"
         id="path3237"
         inkscape:connector-curvature="0" /></clipPath><clipPath
       clipPathUnits="userSpaceOnUse"
       id="clipPath3325"><path
         d="m 346.807,78.422 129.6,0 0,47.578 -129.6,0 0,-47.578 z"
         id="path3327"
         inkscape:connector-curvature="0" /></clipPath><clipPath
       clipPathUnits="userSpaceOnUse"
       id="clipPath3471"><path
         d="m 430.227,126 c -7.829,0 -14.176,-6.347 -14.176,-14.176 l 0,0 c 0,-7.829 6.347,-14.176 14.176,-14.176 l 0,0 c 7.829,0 14.176,6.347 14.176,14.176 l 0,0 c 0,7.829 -6.347,14.176 -14.176,14.176 z"
         id="path3473"
         inkscape:connector-curvature="0" /></clipPath><clipPath
       clipPathUnits="userSpaceOnUse"
       id="clipPath3483"><path
         d="m 346.807,78.422 129.6,0 0,47.578 -129.6,0 0,-47.578 z"
         id="path3485"
         inkscape:connector-curvature="0" /></clipPath><clipPath
       clipPathUnits="userSpaceOnUse"
       id="clipPath3519"><path
         d="m 158.121,80.798 112.493,0 0,44.41 -112.493,0 0,-44.41 z"
         id="path3521"
         inkscape:connector-curvature="0" /></clipPath><clipPath
       clipPathUnits="userSpaceOnUse"
       id="clipPath3747"><path
         d="m 158.132,80.798 112.482,0 0,44.41 -112.482,0 0,-44.41 z"
         id="path3749"
         inkscape:connector-curvature="0" /></clipPath><clipPath
       clipPathUnits="userSpaceOnUse"
       id="clipPath3791"><path
         inkscape:connector-curvature="0"
         d="m 192.329,692.608 227.342,0 0,63.392 -227.342,0 0,-63.392 z"
         id="path3793" /></clipPath><clipPath
       clipPathUnits="userSpaceOnUse"
       id="clipPath4924"><path
         inkscape:connector-curvature="0"
         d="m 104.988,362.468 42.025,0 0,19.461 -42.025,0 0,-19.461 z"
         id="path4926" /></clipPath></defs><sodipodi:namedview
     pagecolor="#ffffff"
     bordercolor="#666666"
     borderopacity="1"
     objecttolerance="10"
     gridtolerance="10"
     guidetolerance="10"
     inkscape:pageopacity="0"
     inkscape:pageshadow="2"
     inkscape:window-width="1165"
     inkscape:window-height="1034"
     id="namedview2987"
     showgrid="false"
     fit-margin-left="0.5"
     fit-margin-top="0.5"
     fit-margin-bottom="0.5"
     fit-margin-right="0.5"
     inkscape:zoom="0.82567783"
     inkscape:cx="504.10444"
     inkscape:cy="212.79838"
     inkscape:window-x="749"
     inkscape:window-y="-21"
     inkscape:window-maximized="0"
     inkscape:current-layer="g2993" /><g
     id="g2993"
     inkscape:groupmode="layer"
     inkscape:label="ECA_REPORT"
     transform="matrix(1.25,0,0,-1.25,252.23418,1118.6772)"><g
       id="g5531"
       transform="matrix(5.2214135,0,0,5.2214135,-16.048053,782.58946)"><path
         d="M 0,0 C 0,3.294 2.229,6.495 3.447,5.888 4.835,5.195 2.409,2.089 0,0 z m -15.177,-1.204 c 0,2.652 2.614,7.69 4.213,7.154 1.887,-0.629 -1.565,-5.708 -4.213,-7.154 z m -2.651,-18.952 c -1.202,-0.056 -2.007,0.714 -2.007,1.998 0,3.453 4.787,6.748 8.401,8.516 -0.641,-4.82 -2.268,-10.326 -6.394,-10.514 z M 4.255,-8.915 c -2.73,0 -4.818,-2.008 -4.818,-4.417 0,-2.008 1.205,-3.614 2.81,-3.614 0.564,0 1.126,0.322 1.126,1.044 0,1.045 -1.384,1.299 -1.278,2.86 0.069,1.029 1.038,1.719 1.999,1.719 1.929,0 2.829,-1.867 2.829,-3.795 -0.08,-2.971 -2.267,-5.038 -4.834,-5.038 -3.375,0 -5.541,3.21 -5.541,6.665 0,5.141 3.371,7.148 5.138,7.629 0.018,0 4.619,-0.822 4.477,1.208 C 6.097,-3.763 4.772,-3.421 3.81,-3.382 2.745,-3.34 1.669,-3.723 1.669,-3.723 1.109,-3.442 0.723,-2.889 0.482,-2.246 3.774,0.242 6.103,2.652 6.103,5.381 6.103,6.828 5.139,8.113 3.292,8.113 0,8.113 -2.49,3.935 -2.49,0.163 c 0,-0.645 0,-1.286 0.162,-1.849 -2.088,-1.525 -3.642,-2.472 -6.451,-4.159 0,0.353 0.072,1.259 0.308,2.435 0.964,1.043 2.287,2.608 2.287,3.812 0,0.562 -0.32,1.046 -0.965,1.046 -1.605,0 -2.808,-2.411 -3.13,-4.098 -0.724,-0.882 -2.169,-2.007 -3.374,-2.007 -0.964,0 -1.284,0.884 -1.365,1.205 3.052,1.045 6.827,5.219 6.827,8.994 0,0.802 -0.322,2.571 -2.731,2.571 -3.613,0 -6.665,-5.382 -6.665,-9.556 -1.285,0 -1.767,1.363 -1.767,2.407 0,1.043 0.401,2.089 0.401,2.41 0,0.322 -0.16,0.72 -0.642,0.72 -1.205,0 -1.927,-1.603 -1.927,-3.45 0.081,-2.57 1.767,-4.176 4.016,-4.337 0.32,-1.526 1.685,-2.972 3.372,-2.972 1.044,0 2.329,0.322 3.212,1.125 -0.081,-0.56 -0.16,-1.046 -0.24,-1.527 -3.534,-1.848 -6.104,-3.134 -8.433,-5.22 -1.846,-1.687 -2.891,-3.935 -2.891,-5.701 0,-2.411 1.527,-4.657 4.658,-4.657 3.694,0 6.505,2.97 7.871,7.067 0.642,1.926 0.9,4.731 1.06,7.301 3.694,2.089 5.445,3.299 7.37,4.666 0.241,-0.403 0.484,-0.723 0.805,-0.965 -1.687,-0.885 -5.703,-3.375 -5.703,-9.237 0,-4.175 2.812,-8.832 8.352,-8.832 4.579,0 7.711,3.773 7.711,7.387 0,3.292 -1.848,6.343 -5.383,6.343 z m 13.807,-6.898 c -0.011,-0.024 -0.059,-0.062 -0.149,-0.029 -0.067,0.025 -0.088,0.058 -0.085,0.103 0.003,0.046 0.972,2.903 0.964,6.182 -0.011,3.536 -1.447,5.705 -3.292,5.705 -1.126,0 -1.928,-0.805 -1.928,-2.01 0,-2.17 2.649,-2.329 2.649,-7.069 0,-1.926 -0.4,-3.772 -1.045,-5.78 C 12.207,-28.75 2.729,-33.41 -6.504,-33.41 c -4.256,0 -7.281,0.878 -8.182,1.284 -0.038,0.018 -0.068,0.086 -0.039,0.16 0.021,0.052 0.082,0.095 0.118,0.08 0.365,-0.144 2.963,-0.96 6.174,-0.96 3.535,0 5.622,1.447 5.622,3.212 0,1.125 -0.881,2.008 -2.007,2.008 -2.169,0 -2.331,-2.73 -6.987,-2.73 -2.008,0 -3.775,0.404 -5.863,1.046 -9.958,3.051 -14.704,12.446 -14.695,21.762 0.003,4.537 1.273,8.149 1.295,8.183 0.014,0.027 0.074,0.05 0.144,0.027 0.071,-0.027 0.091,-0.086 0.084,-0.105 -0.117,-0.377 -0.961,-2.966 -0.961,-6.176 0,-3.537 1.445,-5.624 3.292,-5.624 1.043,0 1.928,0.803 1.928,1.926 0,2.171 -2.651,2.409 -2.651,7.071 0,2.005 0.402,3.774 1.044,5.862 3.051,9.956 12.449,14.625 21.684,14.694 4.292,0.033 8.048,-1.251 8.19,-1.364 0.027,-0.022 0.053,-0.078 0.027,-0.144 -0.031,-0.077 -0.082,-0.084 -0.108,-0.08 -0.045,0.003 -2.487,1.026 -6.183,1.026 -3.453,10e-4 -5.621,-1.446 -5.621,-3.293 0,-1.044 0.803,-1.926 2.008,-1.926 2.168,0 2.33,2.649 6.986,2.649 2.006,0 3.775,-0.401 5.861,-1.043 10.04,-3.053 14.61,-12.529 14.696,-21.683 0.045,-4.69 -1.276,-8.238 -1.29,-8.265 z m -24.566,35.89 c -15.258,0 -27.626,-12.366 -27.626,-27.625 0,-15.26 12.368,-27.624 27.626,-27.624 15.258,0 27.624,12.364 27.624,27.624 0,15.177 -12.366,27.625 -27.624,27.625 z m 0,-56.617 c -15.982,0 -28.992,12.929 -28.992,28.992 0,15.983 13.01,28.989 28.992,28.989 15.98,0 28.989,-13.006 28.989,-28.989 0,-16.063 -13.009,-28.992 -28.989,-28.992"
         style="fill:#3b73b9;fill-opacity:1;fill-rule:nonzero;stroke:none"
         id="path5533"
         inkscape:connector-curvature="0" /></g><g
       id="g5535"
       transform="matrix(5.2214135,0,0,5.2214135,191.43526,723.84326)"><path
         d="m 0,0 c 0,-0.529 -0.137,-0.87 -0.53,-1.126 -0.818,-0.528 -2.013,-0.853 -3.258,-0.853 -3.292,0 -5.152,2.439 -5.152,5.902 0,4.299 2.866,6.04 5.306,6.04 1.484,0 2.456,-0.497 3.139,-0.974 0.187,-0.136 0.273,-0.272 0.273,-0.461 0,-0.254 -0.239,-0.563 -0.529,-0.563 -0.171,0 -0.256,0.086 -0.461,0.223 -0.767,0.512 -1.552,0.767 -2.456,0.767 -2.15,0 -4.196,-1.621 -4.196,-5.032 0,-2.916 1.518,-4.895 4.128,-4.895 0.904,0 1.688,0.204 2.388,0.545 0.204,0.103 0.273,0.239 0.273,0.581 l 0,3.053 -2.576,0 c -0.341,0 -0.529,0.17 -0.529,0.528 0,0.341 0.188,0.529 0.529,0.529 l 3.138,0 C -0.172,4.264 0,4.076 0,3.735 L 0,0"
         style="fill:#3b73b9;fill-opacity:1;fill-rule:nonzero;stroke:none"
         id="path5537"
         inkscape:connector-curvature="0" /></g><g
       id="g5539"
       transform="matrix(5.2214135,0,0,5.2214135,236.56915,714.40817)"><path
         d="m 0,0 -4.691,0 c -0.716,0 -1.142,0.409 -1.142,1.125 l 0,9.178 c 0,0.768 0.375,1.296 1.245,1.296 l 4.588,0 c 0.358,0 0.547,-0.171 0.547,-0.528 0,-0.359 -0.171,-0.529 -0.547,-0.529 l -4.469,0 c -0.171,0 -0.29,-0.138 -0.29,-0.324 l 0,-3.651 4.213,0 c 0.342,0 0.529,-0.188 0.529,-0.546 0,-0.341 -0.187,-0.512 -0.529,-0.512 l -4.213,0 0,-4.196 c 0,-0.154 0.068,-0.256 0.222,-0.256 L 0,1.057 C 0.376,1.057 0.547,0.903 0.547,0.546 0.547,0.187 0.358,0 0,0"
         style="fill:#3b73b9;fill-opacity:1;fill-rule:nonzero;stroke:none"
         id="path5541"
         inkscape:connector-curvature="0" /></g><g
       id="g5543"
       transform="matrix(5.2214135,0,0,5.2214135,293.11184,770.51746)"><path
         d="m 0,0 c -2.661,0 -3.803,-2.491 -3.803,-4.947 0,-2.542 1.245,-4.946 3.803,-4.946 2.661,0 3.804,2.489 3.804,4.946 C 3.804,-2.491 2.661,0 0,0 z m 0.018,-10.918 c -3.31,0 -4.897,2.883 -4.897,5.971 0,3.428 1.792,5.971 4.897,5.971 3.257,0 4.861,-2.797 4.861,-5.971 0,-3.088 -1.57,-5.971 -4.861,-5.971"
         style="fill:#3b73b9;fill-opacity:1;fill-rule:nonzero;stroke:none"
         id="path5545"
         inkscape:connector-curvature="0" /></g><g
       id="g5547"
       transform="matrix(5.2214135,0,0,5.2214135,331.83384,714.13666)"><path
         d="m 0,0 c -0.34,0 -0.512,0.17 -0.512,0.529 l 0,7.761 c 0,0.342 0.188,0.512 0.53,0.512 0.357,0 0.528,-0.17 0.528,-0.512 l 0,-7.761 C 0.546,0.17 0.358,0 0,0 z m 0.018,10.901 c -0.393,0 -0.717,0.323 -0.717,0.716 0,0.392 0.324,0.716 0.717,0.716 0.408,0 0.716,-0.324 0.716,-0.716 0,-0.41 -0.308,-0.716 -0.716,-0.716"
         style="fill:#3b73b9;fill-opacity:1;fill-rule:nonzero;stroke:none"
         id="path5549"
         inkscape:connector-curvature="0" /></g><g
       id="g5551"
       transform="matrix(5.2214135,0,0,5.2214135,353.38784,716.81006)"><path
         d="m 0,0 c 0,-0.325 -0.189,-0.513 -0.529,-0.513 -0.358,0 -0.528,0.171 -0.528,0.513 l 0,11.82 c 0,0.342 0.186,0.513 0.528,0.513 C -0.171,12.333 0,12.162 0,11.82 L 0,0"
         style="fill:#3b73b9;fill-opacity:1;fill-rule:nonzero;stroke:none"
         id="path5553"
         inkscape:connector-curvature="0" /></g><g
       id="g5555"
       transform="matrix(5.2214135,0,0,5.2214135,418.92702,726.33916)"><path
         d="m 0,0 c -1.604,1.433 -3.105,2.729 -3.667,3.241 -1.041,-0.29 -1.758,-1.143 -1.758,-2.303 0,-1.262 0.904,-2.388 2.593,-2.388 1.347,0 2.252,0.58 2.832,1.45 z m 0.495,0.99 c 0.307,0.87 0.444,1.841 0.444,2.797 0,0.341 0.169,0.529 0.528,0.529 0.342,0 0.495,-0.188 0.495,-0.529 0,-1.195 -0.206,-2.44 -0.683,-3.497 l 1.912,-1.722 c 0.119,-0.12 0.187,-0.206 0.187,-0.359 0,-0.222 -0.273,-0.546 -0.529,-0.546 -0.17,0 -0.256,0.052 -0.461,0.205 -0.444,0.357 -1.109,1.006 -1.655,1.484 -0.784,-1.075 -1.945,-1.808 -3.599,-1.808 -2.268,0 -3.615,1.552 -3.615,3.377 0,1.365 0.732,2.474 2.046,3.037 -0.802,0.733 -1.296,1.467 -1.296,2.626 0,1.689 1.347,2.901 3.104,2.901 1.331,0 2.304,-0.461 2.832,-0.974 0.188,-0.169 0.307,-0.34 0.307,-0.51 0,-0.256 -0.273,-0.563 -0.529,-0.563 -0.154,0 -0.239,0.05 -0.392,0.187 -0.411,0.358 -1.041,0.853 -2.133,0.853 -1.21,0 -2.132,-0.648 -2.132,-1.894 0,-0.972 0.579,-1.551 1.468,-2.371 0.187,-0.187 2.865,-2.507 3.701,-3.223"
         style="fill:#3b73b9;fill-opacity:1;fill-rule:nonzero;stroke:none"
         id="path5557"
         inkscape:connector-curvature="0" /></g><g
       id="g5559"
       transform="matrix(5.2214135,0,0,5.2214135,507.25767,723.84326)"><path
         d="m 0,0 c 0,-0.529 -0.136,-0.87 -0.529,-1.126 -0.818,-0.528 -2.013,-0.853 -3.258,-0.853 -3.292,0 -5.152,2.439 -5.152,5.902 0,4.299 2.866,6.04 5.306,6.04 1.484,0 2.456,-0.497 3.138,-0.974 0.189,-0.136 0.274,-0.272 0.274,-0.461 0,-0.254 -0.239,-0.563 -0.529,-0.563 -0.171,0 -0.256,0.086 -0.46,0.223 -0.769,0.512 -1.554,0.767 -2.457,0.767 -2.15,0 -4.196,-1.621 -4.196,-5.032 0,-2.916 1.518,-4.895 4.128,-4.895 0.904,0 1.689,0.204 2.388,0.545 0.204,0.103 0.273,0.239 0.273,0.581 l 0,3.053 -2.576,0 c -0.341,0 -0.529,0.17 -0.529,0.528 0,0.341 0.188,0.529 0.529,0.529 l 3.138,0 C -0.171,4.264 0,4.076 0,3.735 L 0,0"
         style="fill:#3b73b9;fill-opacity:1;fill-rule:nonzero;stroke:none"
         id="path5561"
         inkscape:connector-curvature="0" /></g><g
       id="g5563"
       transform="matrix(5.2214135,0,0,5.2214135,550.35523,741.48126)"><path
         d="m 0,0 c 0,1.552 -1.007,2.678 -2.474,2.678 -1.945,0 -2.678,-1.825 -2.678,-3.496 0,-1.673 0.546,-3.532 2.678,-3.532 1.467,0 2.474,1.11 2.474,2.661 L 0,0 z M 0.529,-5.237 C 0.171,-5.237 0,-5.067 0,-4.708 l 0,0.819 c -0.375,-0.665 -1.177,-1.467 -2.627,-1.467 -2.525,0 -3.583,2.149 -3.583,4.538 0,2.354 1.092,4.502 3.702,4.502 1.331,0 2.116,-0.681 2.508,-1.348 l 0,0.717 c 0,0.342 0.171,0.512 0.529,0.512 0.341,0 0.528,-0.17 0.528,-0.512 l 0,-7.761 c 0,-0.359 -0.187,-0.529 -0.528,-0.529"
         style="fill:#3b73b9;fill-opacity:1;fill-rule:nonzero;stroke:none"
         id="path5565"
         inkscape:connector-curvature="0" /></g><g
       id="g5567"
       transform="matrix(5.2214135,0,0,5.2214135,581.68371,713.51006)"><path
         d="m 0,0 c -1.245,0 -2.184,0.426 -2.849,0.938 -0.153,0.12 -0.221,0.256 -0.221,0.443 0,0.274 0.239,0.53 0.477,0.53 0.154,0 0.256,-0.035 0.409,-0.154 0.53,-0.392 1.348,-0.75 2.184,-0.75 1.348,0 2.03,0.596 2.03,1.449 0,2.389 -4.964,0.563 -4.964,4.044 0,1.501 1.28,2.541 3.087,2.541 1.212,0 1.98,-0.409 2.44,-0.751 C 2.798,8.137 2.866,8.018 2.866,7.846 2.866,7.608 2.644,7.267 2.371,7.267 2.235,7.267 2.15,7.3 1.962,7.438 1.468,7.778 0.921,8.034 0.136,8.034 -1.313,8.034 -1.876,7.3 -1.876,6.568 -1.876,4.077 3.089,5.919 3.089,2.525 3.089,1.126 1.962,0 0,0"
         style="fill:#3b73b9;fill-opacity:1;fill-rule:nonzero;stroke:none"
         id="path5569"
         inkscape:connector-curvature="0" /></g></g></svg>