<svg width="480" height="128" viewBox="0 0 480 128" fill="none" xmlns="http://www.w3.org/2000/svg">
<path d="M183.456 68.9685C183.456 71.0415 182.707 72.8085 181.21 74.2665C179.713 75.7245 177.915 76.455 175.816 76.455H165.642C163.518 76.455 161.713 75.726 160.228 74.2665C158.743 72.8085 158.001 71.0415 158.001 68.9685V58.449C158.001 56.4015 158.749 54.648 160.248 53.19C161.745 51.7305 163.542 51.0015 165.642 51.0015H175.816C177.915 51.0015 179.713 51.7305 181.21 53.19C182.707 54.648 183.456 56.403 183.456 58.449V68.9685ZM178.387 68.9625V58.494C178.387 57.6735 178.135 56.9805 177.634 56.4165C177.133 55.8525 176.535 55.5705 175.84 55.5705H165.615C164.895 55.5705 164.29 55.8525 163.801 56.4165C163.312 56.982 163.069 57.6735 163.069 58.494V68.9625C163.069 69.7575 163.314 70.4445 163.801 71.0205C164.289 71.598 164.893 71.886 165.615 71.886H175.84C176.535 71.886 177.133 71.598 177.634 71.0205C178.137 70.443 178.387 69.7575 178.387 68.9625Z" fill="#1D1B24"/>
<path d="M226.799 75.4185C226.799 76.11 226.466 76.455 225.802 76.455H222.73C222.064 76.455 221.732 76.1085 221.732 75.417V58.4925C221.732 57.672 221.482 56.979 220.984 56.4165C220.484 55.8525 219.89 55.5705 219.199 55.5705H208.987C208.295 55.5705 207.7 55.8525 207.202 56.4165C206.704 56.9805 206.453 57.672 206.453 58.4925V75.417C206.453 76.11 206.12 76.455 205.454 76.455H202.382C201.716 76.455 201.385 76.11 201.385 75.4185V58.449C201.385 56.4015 202.127 54.648 203.612 53.19C205.096 51.7305 206.888 51.0015 208.987 51.0015H219.199C221.297 51.0015 223.09 51.7305 224.575 53.19C226.058 54.648 226.801 56.403 226.801 58.449L226.799 75.4185Z" fill="#1D1B24"/>
<path d="M270.183 58.5255C270.183 60.5985 269.433 62.364 267.933 63.8235C266.433 65.283 264.631 66.012 262.528 66.012H250.797C250.129 66.012 249.796 66.357 249.796 67.0485V68.967C249.796 69.7605 250.041 70.446 250.53 71.0205C251.017 71.5965 251.622 71.8845 252.343 71.8845H264.112C264.781 71.8845 265.116 72.2175 265.116 72.882V75.4155C265.116 76.107 264.781 76.452 264.115 76.452H252.384C250.255 76.452 248.448 75.723 246.96 74.2635C245.472 72.8055 244.729 71.0385 244.729 68.9655V58.5255C244.729 56.4525 245.472 54.681 246.955 53.208C248.44 51.7365 250.243 51 252.369 51H262.543C264.642 51 266.44 51.7365 267.937 53.208C269.434 54.681 270.183 56.4525 270.183 58.5255ZM265.077 58.506C265.077 57.6825 264.826 56.9865 264.327 56.4195C263.827 55.8525 263.23 55.569 262.536 55.569H252.337C251.619 55.569 251.016 55.8525 250.528 56.4195C250.041 56.9865 249.798 57.681 249.798 58.506V60.4395C249.798 61.1085 250.132 61.443 250.798 61.443H262.537C263.23 61.443 263.827 61.1535 264.328 60.5745C264.826 59.994 265.077 59.3055 265.077 58.506Z" fill="#1D1B24"/>
<path d="M311.11 75.4185C311.11 76.11 310.777 76.455 310.112 76.455H307.04C306.374 76.455 306.043 76.1085 306.043 75.417V58.4925C306.043 57.672 305.792 56.979 305.294 56.4165C304.795 55.8525 304.201 55.5705 303.509 55.5705H293.297C292.606 55.5705 292.01 55.8525 291.512 56.4165C291.014 56.9805 290.764 57.672 290.764 58.4925V75.417C290.764 76.11 290.431 76.455 289.765 76.455H286.693C286.027 76.455 285.695 76.11 285.695 75.4185V58.449C285.695 56.4015 286.438 54.648 287.923 53.19C289.406 51.7305 291.199 51.0015 293.297 51.0015H303.509C305.608 51.0015 307.4 51.7305 308.885 53.19C310.369 54.648 311.111 56.403 311.111 58.449V75.4185H311.11Z" fill="#1D1B24"/>
<path d="M354.148 68.9685C354.148 71.0415 353.399 72.8085 351.901 74.2665C350.404 75.7245 348.605 76.455 346.507 76.455H330.458C329.767 76.455 329.422 76.11 329.422 75.4185V72.885C329.422 72.2205 329.768 71.8875 330.46 71.8875H346.54C347.257 71.8875 347.86 71.5995 348.347 71.0235C348.835 70.4475 349.079 69.7635 349.079 68.97V66.9735C349.079 66.3345 348.745 66.0135 348.079 66.0135H335.846C333.745 66.0135 331.942 65.2845 330.443 63.825C328.943 62.367 328.193 60.6 328.193 58.527C328.193 56.454 328.942 54.6825 330.44 53.2095C331.937 51.738 333.734 51.0015 335.834 51.0015H346.507C348.605 51.0015 350.404 51.738 351.901 53.2095C353.398 54.6825 354.148 56.454 354.148 58.527V68.9685ZM349.079 60.477V58.506C349.079 57.6825 348.835 56.9865 348.346 56.4195C347.857 55.8525 347.252 55.569 346.532 55.569H335.807C335.087 55.569 334.483 55.8525 333.994 56.4195C333.505 56.9865 333.262 57.681 333.262 58.506C333.262 59.3055 333.506 59.994 333.994 60.5745C334.481 61.1535 335.086 61.443 335.807 61.443H348.076C348.745 61.443 349.079 61.122 349.079 60.477Z" fill="#1D1B24"/>
<path d="M395.035 75.4185C395.035 76.11 394.69 76.455 393.998 76.455H370.618C369.926 76.455 369.581 76.11 369.581 75.4185V72.885C369.581 72.2205 369.928 71.8875 370.622 71.8875H378.791C379.459 71.8875 379.793 71.541 379.793 70.848V56.571C379.793 55.9035 379.46 55.5705 378.796 55.5705H375.724C375.058 55.5705 374.726 55.227 374.726 54.5415V52.029C374.726 51.345 375.058 51.0015 375.722 51.0015H388.934C389.597 51.0015 389.93 51.345 389.93 52.029V54.5415C389.93 55.227 389.597 55.5705 388.933 55.5705H385.861C385.195 55.5705 384.863 55.9035 384.863 56.571V70.848C384.863 71.541 385.196 71.8875 385.861 71.8875H394C394.691 71.8875 395.036 72.2205 395.036 72.885L395.035 75.4185Z" fill="#1D1B24"/>
<path d="M435.96 75.4185C435.96 76.11 435.627 76.455 434.963 76.455H431.891C431.225 76.455 430.893 76.1085 430.893 75.417V58.4925C430.893 57.672 430.643 56.979 430.145 56.4165C429.645 55.8525 429.051 55.5705 428.36 55.5705H418.148C417.456 55.5705 416.861 55.8525 416.363 56.4165C415.865 56.9805 415.614 57.672 415.614 58.4925V75.417C415.614 76.11 415.281 76.455 414.615 76.455H411.543C410.877 76.455 410.546 76.11 410.546 75.4185V58.449C410.546 56.4015 411.288 54.648 412.773 53.19C414.257 51.7305 416.049 51.0015 418.148 51.0015H428.36C430.458 51.0015 432.251 51.7305 433.736 53.19C435.219 54.648 435.962 56.403 435.962 58.449L435.96 75.4185Z" fill="#1D1B24"/>
<path d="M479.344 58.5255C479.344 60.5985 478.594 62.364 477.094 63.8235C475.594 65.283 473.791 66.012 471.689 66.012H459.956C459.29 66.012 458.957 66.357 458.957 67.0485V68.967C458.957 69.7605 459.202 70.446 459.689 71.0205C460.178 71.5965 460.783 71.8845 461.504 71.8845H473.272C473.939 71.8845 474.275 72.2175 474.275 72.882V75.4155C474.275 76.107 473.941 76.452 473.275 76.452H461.543C459.415 76.452 457.607 75.723 456.119 74.2635C454.633 72.8055 453.889 71.0385 453.889 68.9655V58.5255C453.889 56.4525 454.631 54.681 456.116 53.208C457.6 51.7365 459.404 51 461.528 51H471.703C473.801 51 475.6 51.7365 477.097 53.208C478.595 54.681 479.344 56.4525 479.344 58.5255ZM474.238 58.506C474.238 57.6825 473.987 56.9865 473.488 56.4195C472.987 55.8525 472.39 55.569 471.697 55.569H461.498C460.778 55.569 460.177 55.8525 459.688 56.4195C459.2 56.9865 458.957 57.681 458.957 58.506V60.4395C458.957 61.1085 459.29 61.443 459.958 61.443H471.697C472.39 61.443 472.985 61.1535 473.488 60.5745C473.989 59.994 474.238 59.3055 474.238 58.506Z" fill="#1D1B24"/>
<path d="M125.307 67.8147C125.614 70.4994 126.115 73.1805 126.194 75.8723C126.62 90.6811 122.487 103.896 111.608 114.364C103.545 122.123 93.6135 126.19 82.496 127.183C63.7155 128.867 47.1997 122.836 32.3462 111.827C18.8919 101.855 9.24208 88.9214 3.75363 73.0941C-0.368119 61.2147 -1.43912 49.0437 2.27514 36.8476C7.75277 18.8539 20.0603 8.12966 38.3035 3.98392C39.7098 3.66363 41.1487 3.47649 42.5767 3.24258C42.6993 3.22098 42.8327 3.29656 42.995 3.33614C40.1137 5.02035 37.1423 6.53182 34.4125 8.39237C24.8816 14.8881 19.5951 24.1369 17.7741 35.3253C14.8567 53.2363 20.6229 68.862 31.387 82.8359C41.5381 96.0145 54.6787 104.943 71.1296 108.466C84.8291 111.399 97.7713 109.639 109.141 100.934C117.298 94.6865 121.975 86.1863 123.876 76.1638C124.395 73.4252 124.637 70.6362 125.008 67.8687C125.105 67.8507 125.206 67.8327 125.307 67.8147Z" fill="#1D1B24"/>
<path d="M54.4537 25.5368C41.8577 26.2889 25.8575 37.0779 28.2772 60.0523C28.1113 60.0882 27.9454 60.1242 27.7795 60.1566C27.199 57.1301 26.402 54.1287 26.0811 51.077C25.2769 43.4225 26.1748 36.0163 29.8206 29.0707C35.1756 18.8647 43.7473 13.1787 54.973 11.4045C67.2228 9.46838 78.4377 12.6209 88.9675 18.7675C89.1983 18.9007 89.4543 18.9978 89.4507 19.2857C86.6632 18.6812 83.9046 17.8786 81.0882 17.5116C70.7243 16.1692 57.7388 24.1188 58.0021 37.9416C58.1824 47.4963 62.4989 55.2227 69.5487 61.4702C75.1237 66.4112 81.5858 69.4162 89.1766 69.4809C103.276 69.6069 113.031 57.1985 109.486 43.5268C108.689 40.4571 107.258 37.5493 106.284 34.422C107.395 36.0919 108.61 37.7077 109.605 39.4423C116.107 50.7999 119.302 62.7657 115.808 75.7967C112.447 88.3275 104.099 95.9641 91.8019 99.5592C90.6804 99.8867 89.5336 100.146 88.3833 100.351C87.3844 100.531 86.3639 100.596 85.2893 100.596C93.8105 97.7994 100.081 92.5057 103.63 84.2502C105.426 80.0684 106.226 75.678 105.956 70.8053C105.321 71.1903 104.953 71.3451 104.668 71.5934C97.6437 77.7904 89.4435 79.0716 80.5329 77.3118C65.3693 74.3141 52.4704 61.3298 49.7297 46.3878C48.3847 39.05 49.7802 32.342 54.1544 26.2673C54.2626 26.1197 54.3022 25.9146 54.4537 25.5368Z" fill="#10AED6"/>
<path d="M89.164 67.3468C97.7645 63.4242 101.706 57.2739 100.628 49.4863C100 44.9447 98.3739 40.8097 95.6225 37.2146C91.5079 31.8344 86.1817 28.2501 79.2869 27.3468C71.0218 26.2672 64.5164 30.5029 62.2013 38.4957C62.0715 38.9456 61.9345 39.3918 61.7722 39.946C60.7012 34.4219 64.3217 26.8394 69.5685 23.7733C76.8708 19.5052 84.22 20.4156 91.1473 24.4498C100.137 29.686 105.662 37.5492 106.322 48.0828C106.909 57.4503 101.67 65.7885 90.7903 67.3396C90.2602 67.4152 89.7049 67.3468 89.164 67.3468Z" fill="#87C554"/>
</svg>
