<?xml version="1.0" encoding="UTF-8"?>
<svg width="332px" height="216px" viewBox="0 0 332 216" version="1.1" xmlns="http://www.w3.org/2000/svg" xmlns:xlink="http://www.w3.org/1999/xlink">
    <!-- Generator: Sketch 53.2 (72643) - https://sketchapp.com -->
    <title>Asset 2</title>
    <desc>Created with Sketch.</desc>
    <g id="FINAL-INITIAL-FLOW" stroke="none" stroke-width="1" fill="none" fill-rule="evenodd">
        <g id="Initial-Launch-Screen" transform="translate(-22.000000, -226.000000)" fill-rule="nonzero">
            <g id="Asset-2" transform="translate(22.000000, 226.000000)">
                <polygon id="Shape" fill="#FFFFFF" points="74.8273998 198.507042 86.3960596 198.507042 86.3960596 200.720282 77.1320046 200.720282 77.1320046 205.580282 86.1678809 205.580282 86.1678809 207.770704 77.1320046 207.770704 77.1320046 213.292394 86.4835281 213.292394 86.4835281 215.414366 74.8273998 215.414366"></polygon>
                <polygon id="Shape" fill="#FFFFFF" points="99.8814204 208.295493 95.0440321 215.414366 92.4884307 215.414366 98.6682703 206.561408 93.0588774 198.507042 95.6144788 198.507042 100.041145 204.827324 104.34992 198.507042 106.905521 198.507042 101.250493 206.561408 107.475968 215.414366 104.874731 215.414366"></polygon>
                <path d="M114.089347,198.507042 L121.695304,198.507042 C125.962245,198.507042 127.673585,200.263944 127.673585,203.732113 C127.673585,207.200282 126.007881,209.299437 121.62685,209.299437 L116.333104,209.299437 L116.333104,215.414366 L114.089347,215.414366 L114.089347,198.507042 Z M121.695304,207.154648 C124.113998,207.154648 125.368981,206.287606 125.368981,203.846197 C125.368981,201.404789 124.159633,200.651831 121.653471,200.651831 L116.333104,200.651831 L116.333104,207.154648 L121.695304,207.154648 Z" id="Shape" fill="#FFFFFF"></path>
                <polygon id="Shape" fill="#FFFFFF" points="134.378236 198.507042 145.946896 198.507042 145.946896 200.720282 136.682841 200.720282 136.682841 205.580282 145.718717 205.580282 145.718717 207.770704 136.682841 207.770704 136.682841 213.292394 146.034364 213.292394 146.034364 215.414366 134.378236 215.414366"></polygon>
                <path d="M160.105384,208.911549 L155.393494,208.911549 L155.393494,215.414366 L153.134525,215.414366 L153.134525,198.507042 L160.664422,198.507042 C164.954181,198.507042 166.597068,200.309577 166.597068,203.618028 C166.597068,206.356056 165.433356,208.227042 162.512669,208.751831 L166.346071,215.414366 L163.881741,215.414366 L160.105384,208.911549 Z M160.630195,206.789577 C162.9348,206.789577 164.258236,206.127887 164.258236,203.709296 C164.258236,201.290704 162.980435,200.667042 160.561741,200.667042 L155.393494,200.667042 L155.393494,206.804789 L160.630195,206.789577 Z" id="Shape" fill="#FFFFFF"></path>
                <polygon id="Shape" fill="#FFFFFF" points="173.898786 198.507042 176.180573 198.507042 176.180573 215.414366 173.898786 215.414366"></polygon>
                <polygon id="Shape" fill="#FFFFFF" points="184.064147 198.507042 195.632806 198.507042 195.632806 200.720282 186.38016 200.720282 186.38016 205.580282 195.416037 205.580282 195.416037 207.770704 186.38016 207.770704 186.38016 213.292394 195.735487 213.292394 195.735487 215.414366 184.064147 215.414366"></polygon>
                <polygon id="Shape" fill="#FFFFFF" points="202.831844 198.507042 205.360825 198.507042 214.830241 211.535493 214.830241 198.507042 217.066392 198.507042 217.066392 215.414366 214.94433 215.414366 205.08701 201.883944 205.08701 215.414366 202.850859 215.414366"></polygon>
                <path d="M223.778648,206.949296 C223.778648,200.994085 226.904696,198.233239 232.335349,198.233239 C234.913769,198.233239 236.921741,198.993803 238.450538,200.446479 L236.784834,202.112113 C235.56859,200.994524 233.963558,200.396757 232.312532,200.446479 C228.159679,200.446479 226.106071,202.636901 226.106071,206.972113 C226.106071,211.238873 228.00756,213.497746 232.335349,213.497746 C234.776861,213.497746 235.917755,212.737183 236.921741,211.763662 L238.564628,213.338028 C237.355281,214.547324 235.64394,215.665352 232.22126,215.665352 C226.357068,215.665352 223.778648,212.630704 223.778648,206.949296 Z" id="Shape" fill="#FFFFFF"></path>
                <polygon id="Shape" fill="#FFFFFF" points="245.318717 198.507042 256.887377 198.507042 256.887377 200.720282 247.623322 200.720282 247.623322 205.580282 256.659198 205.580282 256.659198 207.770704 247.623322 207.770704 247.623322 213.292394 256.978648 213.292394 256.978648 215.414366 245.318717 215.414366"></polygon>
                <polygon id="Shape" fill="#F2F2F2" points="0 71.0328169 6.57534937 71.0328169 34.9341581 136.874789 63.4869187 71.0328169 69.9519817 71.0328169 69.9519817 143.746479 64.8635968 143.746479 64.8635968 79.4788732 37.1018557 143.746479 32.675189 143.746479 4.91344788 79.4788732 4.91344788 143.746479 0 143.746479"></polygon>
                <polygon id="Shape" fill="#F2F2F2" points="224.554456 71.0328169 231.129805 71.0328169 259.488614 136.874789 288.045178 71.0328169 294.510241 71.0328169 294.510241 143.746479 289.406644 143.746479 289.406644 79.4788732 261.644903 143.746479 257.229645 143.746479 229.467904 79.4788732 229.467904 143.746479 224.562062 143.746479"></polygon>
                <polygon id="Shape" fill="#F2F2F2" opacity="0.6" points="133.282978 71.0328169 138.713631 71.0328169 167.07244 136.874789 195.629003 71.0328169 200.953173 71.0328169 169.232532 143.746479 164.817274 143.746479"></polygon>
                <polygon id="Shape" fill="#F2F2F2" points="326.801329 71.0328169 331.806048 71.0328169 331.806048 143.746479 326.801329 143.746479"></polygon>
                <polygon id="Shape" fill="#F2F2F2" points="103.91638 71.0328169 108.9211 71.0328169 108.9211 143.746479 103.91638 143.746479"></polygon>
                <polygon id="Shape" fill="#F2F2F2" points="167.049622 61.061831 207.19386 161.90493 212.981993 161.90493 169.42268 52.505493 164.821077 52.505493 121.265567 161.90493 126.91299 161.90493"></polygon>
                <polygon id="Shape" fill="#FFFFFF" points="144.82882 2.21323944 138.626163 2.21323944 138.626163 0 153.362703 0 153.362703 2.21323944 147.175258 2.21323944 147.175258 16.9073239 144.847835 16.9073239"></polygon>
                <polygon id="Shape" fill="#FFFFFF" points="159.683253 0 162.006873 0 162.006873 6.98197183 171.514318 6.98197183 171.514318 0 173.796105 0 173.796105 16.9073239 171.514318 16.9073239 171.514318 9.26366197 162.006873 9.26366197 162.006873 16.9073239 159.702268 16.9073239"></polygon>
                <polygon id="Shape" fill="#FFFFFF" points="181.519954 0 193.088614 0 193.088614 2.21323944 183.824559 2.21323944 183.824559 7.07323944 192.860435 7.07323944 192.860435 9.26366197 183.824559 9.26366197 183.824559 14.7853521 193.191294 14.7853521 193.191294 16.9073239 181.519954 16.9073239"></polygon>
            </g>
        </g>
    </g>
</svg>