<?xml version="1.0" encoding="UTF-8"?>
<svg width="109px" height="44px" viewBox="0 0 109 44" version="1.1" xmlns="http://www.w3.org/2000/svg" xmlns:xlink="http://www.w3.org/1999/xlink">
    <!-- Generator: Sketch 53.2 (72643) - https://sketchapp.com -->
    <title>Group</title>
    <desc>Created with Sketch.</desc>
    <g id="FINAL-INITIAL-FLOW" stroke="none" stroke-width="1" fill="none" fill-rule="evenodd">
        <g id="Initial-Launch-Screen" transform="translate(-133.000000, -520.000000)" fill="#FFFFFF">
            <g id="Group" transform="translate(133.000000, 520.000000)">
                <path d="M108.723021,13.1785841 C108.035782,14.4074351 94.4527046,35.3798254 93.6037623,37.7556039 C93.316739,38.2348558 93.316739,38.8369928 93.6037623,39.3121485 C94.3273846,40.2952293 95.9080343,39.7217655 96.8742115,39.0295128 C99.473592,36.9978125 101.895099,34.7531113 104.110434,32.3076979 C104.26001,32.2093898 104.450011,32.2093898 104.595544,32.3076979 L105.771935,33.3767982 C105.88917,33.4996833 105.88917,33.7003957 105.771935,33.8232808 C103.738516,36.4694066 101.397861,38.8615698 98.8186937,40.9506165 C95.1763269,43.8179355 91.5420453,44.5552461 89.763309,42.7119696 C89.1326662,42.0401977 88.7526634,41.1759059 88.6718118,40.2542676 C88.6718118,39.8036889 88.4252143,39.7627272 88.2271277,39.9675357 C86.0198777,42.769316 82.3451703,43.9080512 78.969614,42.8348547 C76.3985316,41.2045791 75.1978846,38.0505282 76.0185288,35.0971896 C76.0185288,35.0971896 76.0185288,34.6425148 75.6142706,34.8473233 C74.9149038,35.3880177 74.1346854,35.8140194 73.3099986,36.1212321 C72.4246731,36.5267529 71.4544533,36.7356576 70.4801909,36.7315614 C69.0572019,36.7397538 67.73932,35.9942508 67.00357,34.769496 C66.5427156,33.9215888 66.2961181,32.9835659 66.2759052,32.0250621 C66.2759052,32.0250621 66.2759052,31.7751958 66.0293077,32.0250621 C63.6846099,35.6255956 61.5460838,39.0663783 59.2418118,42.7119696 C59.1690453,42.8962973 58.9911717,43.01099 58.7930851,42.9987015 L54.2694354,42.9987015 C53.9864546,42.9987015 53.8651772,42.9987015 54.0268805,42.5071611 C54.7949711,40.9506165 59.201386,34.3148212 62.1120453,28.9078768 C62.9205618,27.3922939 62.7588585,26.6140216 62.1120453,26.286328 C61.4652321,25.9586344 60.1716057,26.286328 59.1164917,27.3103705 C56.6222184,29.4772444 54.3987981,31.9349464 52.4906992,34.6425148 C51.4598406,36.1703862 50.3400453,37.636815 49.1353557,39.0295128 C46.645125,42.4661994 42.3680728,44.0800904 38.2567665,43.1256828 C36.2637733,42.359699 34.7599327,40.6638846 34.214184,38.5748379 C34.214184,38.1693171 33.8503516,38.0423358 33.6522651,38.3331639 C32.7790673,39.3367255 31.7886346,40.2296906 30.7011799,40.9915782 C30.4950082,41.0980786 30.2564959,41.0980786 30.0543667,40.9915782 C29.5692568,40.553288 29.1690412,40.0248821 28.8820178,39.4350336 C28.7405274,39.2548021 28.7405274,39.0008396 28.8820178,38.8206081 C29.9694725,37.9194507 30.9679904,36.9199853 31.8735288,35.830404 C32.4435329,35.0889973 32.8922596,34.2574748 33.2035384,33.3767982 C34.5214203,29.6042257 37.0763324,26.4051169 40.439761,24.3201664 C41.9921126,23.4353937 43.6940398,22.8496414 45.4566057,22.599775 C46.2651222,22.599775 46.8715096,22.599775 47.1140645,23.2142005 C47.3525769,23.8327222 47.4374711,24.0334345 47.5587486,24.4430515 C47.6557706,24.64786 47.5627912,24.889534 47.3606621,24.9878421 C47.332364,25.0042268 47.3081085,25.0124191 47.2757678,25.0206115 C44.6521318,25.9340574 42.3438173,27.5848139 40.6014643,29.7680725 C38.7135783,31.8612153 38.2446387,34.9005735 39.4291154,37.4729682 C40.3710371,38.7345886 42.0487088,39.1769749 43.4716978,38.5338762 C45.8325659,37.6327188 47.700239,35.756673 48.60982,33.3767982 C49.6811044,30.7757303 49.8387651,27.8838343 49.0545041,25.1844583 C48.9251415,24.7994183 49.0342912,24.3775128 49.3374849,24.1153579 C49.858978,23.7385103 50.4128118,23.4108167 50.9949437,23.1363733 C51.4800535,22.8619299 52.0864409,23.0011997 52.4098475,23.4599707 C53.2547472,24.9141111 53.7196442,26.5689637 53.7398571,28.2565858 C53.7398571,28.6252411 53.7398571,28.6252411 54.1077321,28.2565858 C55.4700824,26.6385986 56.9415824,25.1189196 58.514147,23.7057409 C59.8926676,22.4727938 61.6431057,21.7477717 63.4865233,21.6576559 C65.6695178,21.6576559 66.7610151,23.2551622 66.6801634,25.7538259 C66.6801634,26.0815195 66.9227184,26.044654 67.0844217,25.7538259 C67.6059148,24.9755536 68.2325151,24.2751086 68.9440096,23.6688754 C70.2335934,22.4809861 71.931478,21.8624644 73.673831,21.948484 C75.6506538,22.1123308 77.130239,23.8695877 76.9644931,25.876711 C76.9604505,25.9299612 76.9564079,25.9873076 76.9483228,26.044654 C76.7866195,27.3963901 75.9619327,28.5801832 74.7653283,29.1946087 C73.7627678,29.755784 72.521695,29.6247065 71.6525398,28.8669151 C70.9814711,28.2115279 70.7065755,27.248928 70.9208324,26.3272897 C70.9208324,26.3272897 70.68232,25.9586344 70.4801909,26.3272897 C68.6852843,27.7855262 68.3295371,30.4152673 69.6716744,32.3076979 C71.0825357,33.6184723 73.1887211,32.721411 74.7249024,31.6973685 C77.5547101,29.8499959 79.7781305,27.3103705 82.3249574,25.3442089 C83.9622033,23.9310303 85.9430687,22.984815 88.0654244,22.599775 C89.2539437,22.4113512 90.4667184,22.5547172 91.5824711,23.009392 C92.9326937,23.4927401 93.9312115,24.6601485 94.2101497,26.0815195 C94.2101497,26.4501748 94.4890879,26.4911365 94.6952596,26.0815195 C95.9080343,24.1604158 102.457018,14.2435883 102.982554,13.1785841 C102.982554,12.8508905 103.346386,12.8099288 103.669793,12.8099288 L108.359188,12.8099288 C108.723021,12.8099288 108.844298,12.9737756 108.723021,13.1785841 Z M88.9605968,26.8243409 C87.3435638,26.0460686 84.9180144,27.4797281 82.6541682,30.2651237 C80.9764965,32.1575542 79.9820212,34.5701983 79.8243605,37.1057275 C79.7677644,37.9495386 80.1275542,38.7646764 80.7945803,39.2766976 C82.3711875,40.0959316 84.2712012,38.8670806 85.6456792,37.720153 C86.5471751,36.9787463 87.3395212,36.1144544 87.990377,35.139566 C88.677616,34.1810622 89.2840034,33.1693082 89.8095391,32.1084002 L89.8095391,31.8216683 C89.60741,31.7807066 89.4416641,31.645533 89.364855,31.453013 C89.3486847,31.3465126 89.3486847,31.2318198 89.364855,31.1253194 C90.294649,29.6097365 90.6584814,27.6435749 88.9605968,26.8243409 Z M10.2820961,42.6710079 C5.20461261,43.0068938 0.7698997,39.2056481 0.260534315,34.0731471 C-0.0992555202,31.1443856 0.717346128,28.191047 2.52033789,25.8808072 C4.07268953,23.828626 6.27185437,22.3785819 8.74995739,21.7846372 C9.44932415,21.6085019 10.1891167,21.755964 10.7712486,22.190158 C11.377636,22.9274686 11.2159327,23.7057409 10.7712486,24.0334345 C8.85910712,24.8936302 7.25015932,26.3231935 6.16270464,28.1296045 C5.22886811,29.8499959 5.32589008,31.9513311 6.40121701,33.5775106 C8.42250822,36.6905997 14.126592,36.7725231 19.3779066,31.8161575 C20.6634478,30.6323644 21.8802651,29.3748402 23.0202733,28.0476811 C25.259864,25.4589017 27.321581,22.7226601 29.2054244,19.8553411 C27.1720055,19.9208799 25.2073104,20.6172288 23.5821923,21.8624644 C23.1617637,22.2925623 22.4745247,22.2925623 22.0500535,21.8624644 C21.7428173,21.2644236 21.9570742,20.5230169 22.5351634,20.1830347 C25.2800769,18.5404706 28.3686099,17.5573898 31.5501222,17.3157158 C31.7118255,17.2993311 31.8573585,17.2051192 31.9543805,17.0699456 C33.2035384,15.3905159 34.1778008,13.9199909 35.5482362,12.1955033 C36.934842,10.5816123 38.4508104,9.09060645 40.0799711,7.73067802 C41.4099807,6.58375043 42.8774382,5.60476581 44.4459601,4.82239734 C44.7693667,4.82239734 44.4459601,4.45374204 44.4459601,4.45374204 C37.4927184,3.14296765 30.3333049,1.42257626 23.4649574,4.00316335 C18.6906676,5.80547813 16.5925673,9.65997408 17.6032129,12.1955033 C18.3308777,13.9978181 20.6755755,14.2886462 22.85857,13.2195458 C24.7747541,12.3183884 26.412,10.9011136 27.5883915,9.12337581 C28.2756305,8.05837162 29.6905343,8.83664392 28.9224437,10.6389587 C27.3498791,15.3659389 23.2507005,18.7698561 18.367261,19.4088586 C14.9836195,19.6136671 12.0729601,17.0003107 11.8667884,13.5677202 C11.8506181,13.3424309 11.8506181,13.1171415 11.8627459,12.8959484 C11.8627459,5.68259303 19.9479107,0.890074164 28.0330755,0.193725269 C38.0586799,-0.666470426 47.5587486,2.07796346 57.5439272,3.30681445 C65.0793008,4.37591481 72.7440371,4.08099057 80.1783461,2.44661875 C80.8009038,2.25819494 81.4558022,2.61865789 81.641761,3.2453719 C81.690272,3.4092187 81.7023997,3.58535401 81.6781442,3.75739315 C81.6781442,5.10912924 80.586647,6.4239998 78.03982,7.85356312 C75.2625659,9.32408814 72.1578626,10.0409179 69.0248612,9.94260981 C61.4248063,9.94260981 54.3502871,7.03432913 46.9887445,5.39995731 L46.9887445,6.33798023 C42.9138214,9.05783709 39.4412431,12.6174088 36.8054794,16.7832137 C38.9480481,16.7832137 40.8480618,16.7832137 42.8289272,16.4555201 C43.1927596,16.4555201 43.1927596,16.4555201 43.1523338,16.0868648 C42.9582898,14.4565891 43.5444643,12.8263135 44.7289409,11.7080591 C45.8649066,10.5529391 47.7083242,10.5529391 48.8442898,11.7080591 C49.8023818,12.6788514 49.9721703,14.1862419 49.2566332,15.3495542 C48.6300329,16.5210588 47.5668338,17.3894468 46.3055481,17.7662945 C46.1721428,17.7867753 46.083206,17.9137566 46.1034189,18.044834 L46.1034189,18.0530264 C46.1034189,18.3848161 47.6396002,19.199954 47.8013035,19.4457242 C47.9023681,19.7242637 47.825559,20.0355726 47.5991744,20.2239964 C47.4253434,20.453382 47.1585329,20.5926517 46.8715096,20.5967479 C46.6046992,20.5762671 46.3500165,20.4738628 46.1438448,20.3059198 C45.3514986,19.8922067 44.6480893,19.3228391 44.0821277,18.6264902 C44.0821277,18.3848161 43.7587211,18.3848161 43.3099945,18.3848161 C41.1310426,18.3848161 37.7756992,18.8763565 35.511853,19.1589923 C34.9458915,19.1589923 34.8609972,19.1589923 34.7437623,19.5276475 C31.4531002,25.5940753 27.5237101,31.2836554 23.0202733,36.4857912 C19.9074849,40.3853451 15.230217,42.6546232 10.2820961,42.6710079" id="Fill-4"></path>
            </g>
        </g>
    </g>
</svg>